<?xml version="1.0" encoding="utf-8"?>
<!-- Generator: Adobe Illustrator 24.3.0, SVG Export Plug-In . SVG Version: 6.00 Build 0)  -->
<svg version="1.1" id="Layer_1" xmlns="http://www.w3.org/2000/svg" xmlns:xlink="http://www.w3.org/1999/xlink" x="0px" y="0px"
	 viewBox="-65 -100 1100 750" style="enable-background:new 0 0 500 500;" xml:space="preserve">
<g>
	<path d="M391.7,272.9c50.3-28.4,72.2-90.2,68.6-145.3c-0.6-14.2-12.5-27.4-27.9-20.5c-24.9,14.3-34.9,46.9-44.2,71.4
		c-9.3,31.2-15.6,63.5-18.3,95.8c-2.4,7.7-14.5,38-19.8,48.1c-4.6,8.5-10,17.8-19.8,21.2c-2.1-2.1-3.2-4.2-3.2-6.7
		c-1.5-25.8,4.5-51.2,10.6-76c-1-13.3-17-13.4-20.5-1.8c-13.7-7.1-29.5-0.8-37.1,11.8c-16.3,22.1-33.8,66.1-62.9,73.4
		c-9.6,2.4-13.9-13-15.4-19.5c-4-17.5-0.5-34.9,4.7-51.8c1.3-4,2.3-8.4,4.3-12.1c0.5-1,5.7-9.1,7.1-8.5c12.9,6,8.2,32,14.8,30
		c3.2-9.9-1-21-4.6-30c-13.9-24.7-40.1,7.2-43.8,24c-10.4,5.5-27.2,13.9-41.8,12.7c-2.8-11.7-0.1-29.7-13.8-34.6
		c-8.2-19.7-23.6,9.8-27.6,18.4c-10,31.2-38.7,116.6-55.1,83.4c-5.8-18.2-3.8-68.9-1.4-83.4c50.3-28.4,72.2-90.2,68.6-145.3
		c-4.2-33.9-34.6-24.4-48.1-1.4c-29.8,49-39.5,105.9-43.1,161.9c-4,70.3,23.7,145.3,70.9,29.4c1.3,12.9,4.8,27.1,16.4,34.6
		c8.1,6,13.8,5.3,21.6-2.5c9.7-14.1,12.7-39.3,12.7-52c10-0.2,26.3-6.7,38.6-13.3c-2.4,10.4-3.3,21-2.5,31.7
		c0.5,25,31.6,49.1,53.4,30c11.7-10,28.8-31.9,38.8-47.8c-0.5,5.9-0.2,11.8,0.8,17.7c1.1,8,11.4,16,18.7,10.3
		c6.6-6,10.7-11.4,15.9-20.9c-0.7,2.8-1.1,9.5-0.7,9.2c-0.8,15.4,4.4,36.2,21.9,39.2c24.1-6.1,29.2-36.9,40.5-60.2
		c-1.7,118.6,50.9,107.9,84.6-17.5c1.4-6-3.5-6.7-5.3-3.2C409.4,400.8,379.2,383.7,391.7,272.9z M393.1,258.8
		c7.3-41.9,11.8-84.6,31.8-122.7c4.8-9.5,14.1-27.8,23-10.3c10,49-12.1,113.2-55.9,140.3C392,264.1,392.8,259.5,393.1,258.8z
		 M46,258.8c7.3-41.9,11.8-84.6,31.8-122.7c4.8-9.5,14.1-27.8,23-10.3c10.1,49-12.1,113.2-55.9,140.3
		C44.9,264.1,45.6,259.5,46,258.8z M126.6,269.4c0.4-2.8,1.1-5.3,3.9-7.1c5.1,6.9,4.9,15.8,6,24.4
		C129.5,283.7,126.4,276,126.6,269.4z M136.8,312.5c-2.2,8.1-4,31.4-14.1,31.5c-12.1-19.9-12.7-40.1-2.8-62.6c2.1,0,2.1,2.1,2.8,3.2
		c1.1,1.1,1.8,2.5,2.8,3.5c3,3.6,7.1,6.2,11.3,8.1C137.5,301.9,137.5,307.2,136.8,312.5z M313.6,274.3c-2.9,14.4-6.5,30.7-19.1,40.3
		c-1.8,1.8-2.5-4.2-2.5-8.1c0.3-14.6,1.1-51.2,24-43.1C315,267.2,314.3,271.5,313.6,274.3z"/>
	<path d="M128.4,197.8H139l1.2,1.2v0.1c0.9,4.5,2.7,8.1,9,8.1c4,0,6.3-1.6,7.7-3.7c1.2-1.9,1.4-4,1.4-4.5c0-2.1-0.4-3.1-1.7-4.9
		c-1.7-2.5-5.4-5.8-13.1-10.5c-7.8-4.7-11.9-9-14-12.8c-2.1-3.7-2.1-7-2.1-9.3c0-1.6,0.1-3.3,1.1-6.2c1.1-3.5,3.5-7.8,8.2-10.6
		c3.1-1.9,7.3-3.1,12.6-3.1c9.9,0,16.1,4.3,19.2,10c2.7,4.9,2.7,9.8,2.7,9.9l-1.2,1.2h-10.4l-1.2-1.2v-0.1c-0.9-4.5-2.7-8.1-9-8.1
		c-4,0-6.3,1.6-7.7,3.7c-1.2,1.9-1.4,4-1.4,4.5c0,2.1,0.4,3.1,1.7,4.9c1.7,2.5,5.4,5.8,13.1,10.5c7.8,4.7,11.9,9,14,12.8
		c2.1,3.7,2.1,7,2.1,9.3c0,1.5-0.1,3.3-1.1,6.2c-1.1,3.5-3.5,7.8-8.2,10.6c-3.1,1.9-7.3,3.1-12.6,3.1c-9.9,0-16.1-4.3-19.2-10
		c-2.7-4.9-2.7-9.8-2.7-9.9C127.3,198.5,127.8,197.8,128.4,197.8z"/>
	<path d="M237.7,217.7l-1.2,1.2H226l-1.2-1.2v-31.6h-18.1v31.6l-1.2,1.2h-10.4l-1.2-1.2v-74.9l1.2-1.2h10.4l1.2,1.2v31.6h18.1v-31.6
		l1.2-1.2h10.4l1.2,1.2V217.7z"/>
	<path d="M301.6,151.6c2.7,4.9,2.7,9.8,2.7,9.9V199c0,6.3-3.3,13.2-9.3,16.8c-3.1,1.9-7.3,3.1-12.6,3.1c-9.9,0-16.1-4.3-19.2-10
		c-2.7-4.9-2.7-9.8-2.7-9.9v-37.6c0-6.3,3.3-13.2,9.3-16.8c3.1-1.9,7.3-3.1,12.6-3.1C292.3,141.6,298.5,145.9,301.6,151.6z
		 M291.4,161.4c-0.9-4.5-2.7-8.1-9-8.1c-4.1,0-6.3,1.6-7.7,3.7c-1.2,1.9-1.4,4-1.4,4.5v37.7c0.9,4.5,2.7,8.1,9,8.1
		c4.1,0,6.3-1.6,7.7-3.7c1.2-1.9,1.4-4,1.4-4.5V161.4z"/>
	<path d="M371.2,166.2c0,10.7-4.2,17.8-10.9,21.5c-5.6,3.1-10.9,3.1-11,3.1h-9v26.9l-1.2,1.2h-10.4l-1.2-1.2v-74.9l1.2-1.2h20.7
		c0.1,0,3.1,0,6.9,1.3c3.8,1.2,8.5,4,11.6,9.2C369.9,155.6,371.2,160.1,371.2,166.2z M353.6,177.6c2.2-1.6,4.7-4.6,4.7-11.4
		c0-6.5-2.2-9.7-4.5-11.2c-2.2-1.6-4.5-1.7-4.6-1.7h-9v25.9h9C351,179,352.1,178.6,353.6,177.6z"/>
	<path d="M378.8,388.2c-11.3-3.2-22.3-7.1-33.2-11.4c-2.7-1-5.5-1.6-8.3-2.2c-0.9-0.2-1.9,0.2-3.4,0.5c4.8,6.4,12.3,10.1,16.4,16
		c-6.5,0-13,0-19.5,0c-45.3,0.1-90.5-1-135.8-1.3c-8.3-8.4-17.1-16.2-26.4-23.6c-1.8-1.4-4.3,1.1-2.5,2.5c8.3,6.6,16.3,13.6,23.8,21
		c-1.4,0-2.9,0-4.3,0c-9.7,0-19.5,0-29.2-0.1c-5.9-7.3-11.7-14.6-17.6-22c-1.4-1.8-3.9,0.7-2.5,2.5l15.6,19.4c-8.5,0-17,0-25.5-0.1
		c-7.5-5.5-14.4-11.6-20.8-18.3c-1.6-1.7-4.1,0.9-2.5,2.5c5.4,5.7,11.3,10.9,17.5,15.8c-9.1,0-18.1,0-27.2,0.1c-0.1,0-0.1,0-0.2,0
		c-5.2-5.8-10.3-11.7-15.5-17.6c-1.5-1.7-4,0.8-2.5,2.5c4.8,5.5,9.6,11.1,14.5,16.5v0.8c-5.6,4.8-10.8,9.9-15.5,15.5
		c-1.5,1.7,1,4.2,2.5,2.5c4.8-5.6,10-10.8,15.6-15.6c8.9-0.1,17.8-0.1,26.7-0.1c-6.1,5.1-12,10.4-17.5,16c-1.6,1.6,0.9,4.1,2.5,2.5
		c6.5-6.6,13.4-12.8,20.7-18.6c8.6,0,17.2,0,25.8,0c-6.7,5.6-12.1,12.7-19.6,17.2c-1.9,1.2-0.2,4.2,1.8,3.1c9-5.5,15-14.5,23.7-20.3
		c10.3,0,20.6,0,30.9,0.1c-2.6,2-5.1,4.4-7.6,6.7c-4.8,4.5-10,8.4-15.2,12.4c-1.8,1.4,0.7,3.9,2.5,2.5c4.7-3.7,9.5-7.2,13.9-11.2
		c4.1-3.8,7.9-7.8,12.8-10.4c13.5,0.1,27,0.1,40.4,0.2c36.2,0.2,72.5,0.6,108.7,0.5c1.6,0,3.3,0,5,0.4c-4.6,4.7-11,8.7-16,12.9
		c1.3,2.1,2.9,1.8,4.5,1.3c15.1-4,30.2-8,45.3-12c2.2-0.6,4.4-1.1,6.7-1.4c1.8-0.3,3.2-0.9,3.4-3.5
		C387.6,391.2,383.2,389.4,378.8,388.2z"/>
</g>
</svg>
